<svg xmlns="http://www.w3.org/2000/svg" width="23.722" height="23.031" viewBox="0 0 23.722 23.031">
  <path id="Cart" d="M96.31,82.4h-17.1l-.985-2.315a.809.809,0,0,0-.559-.471l-3.172-.746a.809.809,0,0,0-.37,1.575l2.774.653L84,97.782a2.674,2.674,0,1,0,4.791.269H91.7a2.675,2.675,0,1,0,2.463-1.63l-8.982.012-1.108-2.6H96.31a.809.809,0,0,0,.809-.809V83.2A.809.809,0,0,0,96.31,82.4ZM94.165,98.039A1.057,1.057,0,1,1,93.108,99.1,1.057,1.057,0,0,1,94.165,98.039Zm-7.835,0A1.057,1.057,0,1,1,85.273,99.1,1.057,1.057,0,0,1,86.329,98.039ZM95.5,87.3H90.14a.809.809,0,0,0,0,1.618H95.5v3.29H83.385l-3.487-8.2H95.5Z" transform="translate(-73.447 -78.79)" fill="#234572" stroke="#515c6f" stroke-width="0.1"/>
</svg>
