<svg xmlns="http://www.w3.org/2000/svg" width="30.291" height="24.602" viewBox="0 0 30.291 24.602">
  <path id="Icon_awesome-twitter" data-name="Icon awesome-twitter" d="M27.177,9.512c.019.269.019.538.019.807,0,8.207-6.246,17.663-17.663,17.663A17.543,17.543,0,0,1,0,25.2a12.843,12.843,0,0,0,1.5.077A12.433,12.433,0,0,0,9.206,22.62a6.219,6.219,0,0,1-5.8-4.305,7.829,7.829,0,0,0,1.172.1A6.566,6.566,0,0,0,6.208,18.2,6.209,6.209,0,0,1,1.23,12.107V12.03a6.252,6.252,0,0,0,2.806.788,6.217,6.217,0,0,1-1.922-8.3,17.646,17.646,0,0,0,12.8,6.5,7.008,7.008,0,0,1-.154-1.422A6.214,6.214,0,0,1,25.5,5.341a12.223,12.223,0,0,0,3.94-1.5,6.191,6.191,0,0,1-2.729,3.421A12.445,12.445,0,0,0,30.291,6.3a13.345,13.345,0,0,1-3.114,3.21Z" transform="translate(0 -3.381)"/>
</svg>
