<svg xmlns="http://www.w3.org/2000/svg" width="24.219" height="24.219" viewBox="0 0 24.219 24.219">
  <path id="Path_1" data-name="Path 1" d="M-12.5-21.484a11.738,11.738,0,0,1,6.055,1.636A12.236,12.236,0,0,1-2.026-15.43,11.738,11.738,0,0,1-.391-9.375,11.738,11.738,0,0,1-2.026-3.32,12.236,12.236,0,0,1-6.445,1.1,11.738,11.738,0,0,1-12.5,2.734,11.738,11.738,0,0,1-18.555,1.1,12.236,12.236,0,0,1-22.974-3.32a11.738,11.738,0,0,1-1.636-6.055,11.738,11.738,0,0,1,1.636-6.055,12.236,12.236,0,0,1,4.419-4.419A11.738,11.738,0,0,1-12.5-21.484Zm0,2.344a9.476,9.476,0,0,0-4.883,1.318,9.848,9.848,0,0,0-3.564,3.564,9.521,9.521,0,0,0-1.318,4.907A9.262,9.262,0,0,0-20.9-4.443,4.618,4.618,0,0,1-19.922-6.3a4.548,4.548,0,0,1,2.1-1.318,6.148,6.148,0,0,1-.928-3.271,6.29,6.29,0,0,1,.83-3.2,6.08,6.08,0,0,1,2.271-2.271,6.2,6.2,0,0,1,3.149-.83,6.2,6.2,0,0,1,3.149.83A6.08,6.08,0,0,1-7.08-14.087a6.2,6.2,0,0,1,.83,3.149,6.233,6.233,0,0,1-.928,3.32A4.548,4.548,0,0,1-5.078-6.3,4.618,4.618,0,0,1-4.1-4.443,9.262,9.262,0,0,0-2.734-9.351a9.521,9.521,0,0,0-1.318-4.907,9.848,9.848,0,0,0-3.564-3.564A9.476,9.476,0,0,0-12.5-19.141Zm3.906,8.2A3.761,3.761,0,0,0-9.741-13.7,3.761,3.761,0,0,0-12.5-14.844,3.761,3.761,0,0,0-15.259-13.7a3.761,3.761,0,0,0-1.147,2.759,3.761,3.761,0,0,0,1.147,2.759A3.761,3.761,0,0,0-12.5-7.031,3.761,3.761,0,0,0-9.741-8.179,3.761,3.761,0,0,0-8.594-10.937ZM-18.75-1.855A10.117,10.117,0,0,0-15.845-.2,9.579,9.579,0,0,0-12.5.391,9.579,9.579,0,0,0-9.155-.2,10.117,10.117,0,0,0-6.25-1.855V-3.223a2.247,2.247,0,0,0-.439-1.343,2.054,2.054,0,0,0-1.172-.806l-1.221-.342A5.954,5.954,0,0,1-12.5-4.687a5.954,5.954,0,0,1-3.418-1.025l-1.221.342a2.054,2.054,0,0,0-1.172.806,2.247,2.247,0,0,0-.439,1.343Z" transform="translate(24.609 21.484)" fill="#234572"/>
</svg>
